<svg width="1300" height="981" viewBox="0 0 1300 981" fill="none" xmlns="http://www.w3.org/2000/svg">
<ellipse rx="145.627" ry="140.465" transform="matrix(0.970026 -0.243002 0.271124 0.962545 718.172 571.963)" fill="#175979"/>
<path d="M298.015 819.666C297.512 822.319 299.346 824.934 302.111 825.509L347.163 834.873C349.927 835.448 352.575 833.764 353.078 831.112C353.58 828.459 351.746 825.844 348.981 825.269L308.935 816.945L316.209 778.53C316.711 775.878 314.877 773.262 312.112 772.687C309.348 772.113 306.699 773.797 306.197 776.449L298.015 819.666ZM674.448 578.531L300.124 816.576L305.917 824.838L680.241 586.793L674.448 578.531Z" fill="#175979"/>
<path d="M1009.83 684.524C1012.5 683.659 1013.92 680.882 1013.01 678.323L998.135 636.62C997.223 634.061 994.32 632.688 991.652 633.553C988.985 634.419 987.562 637.195 988.474 639.754L1001.69 676.824L963.048 689.361C960.38 690.227 958.957 693.003 959.87 695.562C960.782 698.121 963.685 699.494 966.353 698.629L1009.83 684.524ZM757.001 566.529L1005.93 684.275L1010.42 675.506L761.496 557.759L757.001 566.529Z" fill="#175979"/>
<ellipse rx="174.768" ry="167.549" transform="matrix(0.944408 -0.328775 0.362479 0.931992 530.073 393.554)" fill="#B9D3E0"/>
<path d="M1074.74 218.8C1075.87 216.338 1074.72 213.387 1072.17 212.21L1030.59 193.015C1028.04 191.837 1025.05 192.878 1023.91 195.34C1022.77 197.802 1023.92 200.752 1026.47 201.93L1063.44 218.992L1046.98 254.652C1045.84 257.113 1046.99 260.064 1049.54 261.242C1052.09 262.42 1055.08 261.379 1056.22 258.917L1074.74 218.8ZM562.895 398.536L1071.93 221.327L1068.3 212.007L559.27 389.216L562.895 398.536Z" fill="#B9D3E0"/>
<path d="M207.437 175.5C204.625 175.855 202.618 178.303 202.954 180.968L208.435 224.4C208.771 227.066 211.324 228.939 214.136 228.584C216.948 228.229 218.955 225.781 218.619 223.115L213.747 184.509L254.482 179.368C257.294 179.013 259.301 176.565 258.965 173.9C258.629 171.234 256.076 169.361 253.264 169.716L207.437 175.5ZM502.234 390.002L211.216 176.459L204.876 184.192L495.894 397.736L502.234 390.002Z" fill="#B9D3E0"/>
<ellipse cx="114.943" cy="108.398" rx="114.943" ry="108.398" fill="#175979"/>
<ellipse cx="1185.06" cy="178.856" rx="114.943" ry="108.398" fill="#175979"/>
<ellipse cx="1123.23" cy="716.057" rx="114.943" ry="108.398" fill="#B9D3E0"/>
<ellipse cx="189.655" cy="872.602" rx="114.943" ry="108.398" fill="#B9D3E0"/>
</svg>
